# xmcd CD database file generated by grip 2.1
# 
# Track frame offsets:
#       180
#       27118
#       39752
#       58745
#       77341
#       92546
#       111093
#       137120
#       154721
#       178464
# 
# Disc length: 3179 seconds
# 
# Revision: 3
# Processed by: cddbd v1.4b41PL1 Copyright (c) Steve Scherf et al.
# Submitted via: grip 2.1
# 
DISCID=740c690a
DTITLE=crimson winter - Caller's Water
DYEAR=1900
DGENRE=
TTITLE0=caller's water
TTITLE1=snow
TTITLE2=cash
TTITLE3=broken
TTITLE4=yours to prove
TTITLE5=home
TTITLE6=cryin
TTITLE7=golgotha
TTITLE8=love of the ages
TTITLE9=unfailing love
EXTD=
EXTT0=
EXTT1=
EXTT2=
EXTT3=
EXTT4=
EXTT5=
EXTT6=
EXTT7=
EXTT8=
EXTT9=
PLAYORDER=
